<svg width="288" height="632" viewBox="0 0 288 632" fill="none" xmlns="http://www.w3.org/2000/svg">
<path d="M263 314.611C263 236.263 235.266 161.144 185.93 105.774C153.354 69.2152 113.207 35.7642 69.7109 17.1895C79.821 22.024 89.7354 27.7149 99.3984 34.0576C130.541 54.4993 159.143 81.7402 183.397 108.961C232.092 163.61 244 237.661 244 314.611C244 391.561 232.092 465.614 183.397 520.263C159.15 547.475 130.552 575.556 99.4141 596.839C89.6577 603.507 79.6447 609.515 69.4307 614.619C113.024 595.076 153.271 560.101 185.93 523.449C235.266 468.08 263 392.96 263 314.611Z" stroke="url(#paint0_linear_3193_105)" stroke-width="2"/>
<circle cx="29.1328" cy="29.1328" r="29.1328" transform="matrix(-1 0 0 1 282.633 285.92)" fill="url(#paint1_linear_3193_105)"/>
<circle cx="21.1875" cy="21.1875" r="20.6875" transform="matrix(-1 0 0 1 274.188 294.427)" stroke="black"/>
<circle cx="34.4297" cy="34.4297" r="33.4297" transform="matrix(-1 0 0 1 288 280.743)" stroke="url(#paint2_linear_3193_105)" stroke-width="2"/>
<circle cx="13.2422" cy="13.2422" r="12.7422" transform="matrix(-1 0 0 1 195.742 92.0645)" fill="url(#paint3_linear_3193_105)" stroke="black"/>
<circle cx="13.2422" cy="13.2422" r="13.2422" transform="matrix(-1 0 0 1 195.742 509.552)" fill="url(#paint4_linear_3193_105)"/>
<circle cx="13.2422" cy="13.2422" r="12.7422" transform="matrix(-1 0 0 1 109.742 17.9941)" fill="url(#paint5_linear_3193_105)" stroke="black"/>
<circle cx="13.2422" cy="13.2422" r="13.2422" transform="matrix(-1 0 0 1 108.742 585.867)" fill="url(#paint6_linear_3193_105)"/>
<defs>
<linearGradient id="paint0_linear_3193_105" x1="264" y1="316.295" x2="3.05176e-05" y2="316.295" gradientUnits="userSpaceOnUse">
<stop stop-color="#8B8517"/>
<stop offset="1" stop-color="#F1E728"/>
</linearGradient>
<linearGradient id="paint1_linear_3193_105" x1="29.1328" y1="0" x2="29.1328" y2="58.2657" gradientUnits="userSpaceOnUse">
<stop stop-color="#8B8517"/>
<stop offset="1" stop-color="#F1E728"/>
</linearGradient>
<linearGradient id="paint2_linear_3193_105" x1="34.4297" y1="0" x2="34.4297" y2="68.8595" gradientUnits="userSpaceOnUse">
<stop stop-color="#8B8517"/>
<stop offset="1" stop-color="#F1E728"/>
</linearGradient>
<linearGradient id="paint3_linear_3193_105" x1="13.2422" y1="0" x2="13.2422" y2="26.4844" gradientUnits="userSpaceOnUse">
<stop stop-color="#8B8517"/>
<stop offset="1" stop-color="#F1E728"/>
</linearGradient>
<linearGradient id="paint4_linear_3193_105" x1="13.2422" y1="0" x2="13.2422" y2="26.4844" gradientUnits="userSpaceOnUse">
<stop stop-color="#8B8517"/>
<stop offset="1" stop-color="#F1E728"/>
</linearGradient>
<linearGradient id="paint5_linear_3193_105" x1="13.2422" y1="0" x2="13.2422" y2="26.4844" gradientUnits="userSpaceOnUse">
<stop stop-color="#8B8517"/>
<stop offset="1" stop-color="#F1E728"/>
</linearGradient>
<linearGradient id="paint6_linear_3193_105" x1="13.2422" y1="0" x2="13.2422" y2="26.4844" gradientUnits="userSpaceOnUse">
<stop stop-color="#8B8517"/>
<stop offset="1" stop-color="#F1E728"/>
</linearGradient>
</defs>
</svg>
